<svg width="178" height="87" fill="none" xmlns="http://www.w3.org/2000/svg"><path d="M10.95 37.881 0 32.836l11.854-5.474c.337-16.378 16.16-19.929 22.722-19.293 6.563.636 25.654 12.345 17.961 36.262-2.62 8.15-2.002 29.24 28.586 27.292-2.297 4.33-13.082 22.29-48.182 10.864C23.21 79.32 9.344 63.64 10.95 37.881z" fill="#FFBD54"/><path d="M110.818 32.703c.96-11.6-5.053-22.116-8.576-24.538-3.288-2.26-3.3 7.495-6.227 12.845a36.95 36.95 0 0 0-14.235-2.828A36.936 36.936 0 0 0 67.57 21c-2.922-5.353-2.937-15.095-6.221-12.837-3.52 2.412-9.521 12.921-8.578 24.5-3.622 5.081-5.736 11.166-5.736 17.713 0 17.78 15.556 30.967 34.745 30.967s34.745-13.187 34.745-30.967c0-6.529-2.104-12.6-5.707-17.673z" fill="#78C0DE"/><path d="M109.119 52.411c.898-15.917 6.977-18.117 7.775-27.85C118 11.08 127.285 1.28 131.872.074c4.587-1.204-1.264 12.474 2.847 17.117 8.6-2.981 14.061-.443 18.374 4.223 4.316 4.668-1.317 9.125 7.13 7.93 3.475-.494 7.087-.378 10.11.392.286-.189.595-.35.931-.466 2.378-.824 5.052.662 5.975 3.321a5.513 5.513 0 0 1 .188 2.977c.105.513.149 1.058.116 1.637-.466 8.182-10.549 19.452-16.813 20.273-6.264.822-12.915-.26-13.085 12.273-.225 16.693-37.176 23.3-46.227 6.353 6.624-4.792 7.016-11.538 7.701-23.694z" fill="#000"/><path d="M136.872 22.14c4.325.382 7.761-1.916 11.106-4.492-1.345-.165-2.831-.176-4.498.014-2.507-4.53 4.754-14.616.794-14.47-3.569.127-12.703 5.018-16.914 13.883 3.056 2.054 5.488 5.283 9.512 5.065z" fill="#000"/><path d="M38.142 34.435a3.659 3.659 0 0 0-1.579-.12c-1.547.22-2.854 1.433-3.244 3l-3.47 12.961-6.918-11.498c-.868-1.383-2.474-2.167-4-1.95-.52.075-1 .26-1.43.55-.97.6-1.64 1.501-1.885 2.544a3.777 3.777 0 0 0 .484 2.893l11.702 19.648c.084.169.215.414.443.614a1.073 1.073 0 0 0 .276.223l.104.149.144.109c.052.039.11.08.178.118l.028.194.494.165.151.113 1.12.242.333.063.167-.025c.285.015.496-.015.618-.032.166-.023.384-.055.653-.15l.252-.035.206-.142 1.006-.646.206-.275c.06-.066.147-.162.236-.3.07-.08.13-.172.174-.27l.09-.147.016-.028c.098-.105.176-.227.232-.36.1-.185.18-.407.225-.618l5.848-22.135a3.804 3.804 0 0 0-.336-2.938c-.532-.942-1.439-1.626-2.524-1.916zM81.579 34.28c-9.318.163-16.82 8.104-16.722 17.72.24 9.687 7.847 17.202 17.32 17.105h.01c4.986-.087 9.022-1.661 12.331-4.81.806-.762 1.245-1.73 1.27-2.8.034-1.375-.627-2.58-1.269-3.262-.69-.79-1.902-1.248-3.256-1.225-1.36.024-2.614.534-3.465 1.401-1.092.82-2.993 1.367-4.877 1.4a9.819 9.819 0 0 1-.78-.017c-1.968-.134-4.203-1.12-5.312-2.344l-.09-.09c-.504-.461-.953-1.115-1.304-1.89l18.592-.324c2.422-.042 4.289-1.547 4.596-3.681.072-.268.085-.561.08-.899l-.01-.4c-.719-9.365-7.917-16.044-17.114-15.883zm7.64 12.785-14.177.248c.97-1.92 3.116-3.967 6.668-4.227 3.64.256 6.226 2.145 7.509 3.979zM138.074 49.682c2.535.265 4.897-1.624 5.158-4.125.264-2.546-1.616-4.834-4.194-5.103l-.242-.025.785-7.53c.27-2.587-1.545-4.825-4.132-5.095-2.622-.274-4.887 1.539-5.157 4.126l-.787 7.528-.485-.05c-2.588-.27-4.827 1.545-5.097 4.133a4.646 4.646 0 0 0 4.133 5.096l.485.05-1.635 15.665c-.463 4.418 2.757 8.39 7.177 8.85 2.587.271 4.825-1.543 5.097-4.132.227-2.172-.979-4.099-2.87-4.85l1.52-14.564.244.026z" fill="#fff"/></svg>