<svg width="78" height="78" fill="none" xmlns="http://www.w3.org/2000/svg"><path d="M39.612 5.713H26.206a2.285 2.285 0 1 1 0-4.57h13.406a2.285 2.285 0 1 1 0 4.57zM27.577 51.645h10.664v4.57H27.577v-4.57z" fill="#716680"/><path d="M26.816 5.713h12.187v6.322H26.815V5.713z" fill="#D6CFC4"/><path d="M34.433 5.713h4.57v6.322h-4.57V5.713z" fill="#C4BEB4"/><path d="M68.861 30.622v32.6H59.72V30.928a5.485 5.485 0 0 0-5.485-5.485h-9.139v-9.141h9.444c7.91 0 14.322 6.412 14.322 14.321z" fill="#716680"/><path d="M54.538 16.3h-4.57c7.91 0 14.323 6.413 14.323 14.322v32.6h4.57v-32.6c0-7.91-6.413-14.321-14.323-14.321z" fill="#635870"/><path d="M55.834 76.857H22.166a9.065 9.065 0 0 1-9.064-9.064h51.796a9.065 9.065 0 0 1-9.064 9.064z" fill="#716680"/><path d="M60.328 67.793a9.065 9.065 0 0 1-9.064 9.064h4.57a9.065 9.065 0 0 0 9.064-9.064h-4.57z" fill="#635870"/><path d="M42.05 51.645H23.769a3.047 3.047 0 0 1-3.047-3.047V15.082a3.047 3.047 0 0 1 3.047-3.047h18.28a3.047 3.047 0 0 1 3.048 3.047v33.516a3.047 3.047 0 0 1-3.047 3.047z" fill="#E8E1D5"/><path d="M42.05 12.035h-4.572a3.047 3.047 0 0 1 3.047 3.047v33.516a3.047 3.047 0 0 1-3.047 3.047h4.572a3.047 3.047 0 0 0 3.047-3.047V15.082a3.047 3.047 0 0 0-3.047-3.047z" fill="#D6CFC4"/><path d="M51.19 20.8A6.094 6.094 0 1 1 39 20.8a6.094 6.094 0 0 1 12.188 0z" fill="#FFBD54"/><path d="M47.38 20.8a2.285 2.285 0 1 1-4.57 0 2.285 2.285 0 0 1 4.57 0z" fill="#FF573D"/><path d="M74.572 67.793H3.428a2.285 2.285 0 1 1 0-4.57h71.144a2.285 2.285 0 1 1 0 4.57z" fill="#E8E1D5"/><path d="M74.572 63.223h-4.57a2.285 2.285 0 1 1 0 4.57h4.57a2.285 2.285 0 1 0 0-4.57z" fill="#D6CFC4"/><path d="M45.096 24.228a3.432 3.432 0 0 0 3.427-3.428 3.432 3.432 0 0 0-3.428-3.427 3.432 3.432 0 0 0-3.427 3.427 3.431 3.431 0 0 0 3.428 3.428zm0-4.57c.63 0 1.142.512 1.142 1.142 0 .63-.513 1.143-1.142 1.143a1.144 1.144 0 0 1 0-2.285z" fill="#000"/><path d="M74.572 62.08h-4.568v-.584a1.142 1.142 0 1 0-2.285 0v.584H60.86V30.928a6.636 6.636 0 0 0-6.627-6.63h-2.807a7.186 7.186 0 0 0 .904-3.498c0-1.21-.3-2.353-.828-3.357h3.036c7.267 0 13.18 5.913 13.18 13.18v26.023a1.142 1.142 0 1 0 2.285 0V30.623c0-8.528-6.938-15.465-15.465-15.465h-4.92a7.205 7.205 0 0 0-3.643-1.539 4.194 4.194 0 0 0-3.926-2.726h-1.904v-4.08a3.433 3.433 0 0 0 2.894-3.385A3.432 3.432 0 0 0 39.612 0H26.206a3.432 3.432 0 0 0-3.428 3.428 3.433 3.433 0 0 0 2.895 3.386v4.079h-1.904c-2.31 0-4.19 1.879-4.19 4.189v4.405a1.143 1.143 0 0 0 2.285 0v-4.405c0-1.05.855-1.904 1.905-1.904h18.28a1.9 1.9 0 0 1 1.372.583c-3.185.758-5.562 3.625-5.562 7.04 0 3.601 2.645 6.596 6.095 7.145v20.652c0 1.05-.854 1.904-1.904 1.904H23.769a1.907 1.907 0 0 1-1.905-1.904V24.356a1.143 1.143 0 1 0-2.285 0v24.242c0 2.31 1.88 4.19 4.19 4.19h2.666v3.427c0 .631.511 1.142 1.142 1.142h10.664c.631 0 1.143-.51 1.143-1.142v-3.428h2.666c2.31 0 4.19-1.88 4.19-4.19V27.947a7.201 7.201 0 0 0 3.198-1.362h4.796a4.348 4.348 0 0 1 4.342 4.344V62.08H3.428A3.432 3.432 0 0 0 0 65.508a3.432 3.432 0 0 0 3.428 3.428h8.596c.57 5.092 4.9 9.064 10.142 9.064h33.668c5.242 0 9.572-3.972 10.142-9.064h8.596A3.432 3.432 0 0 0 78 65.508a3.432 3.432 0 0 0-3.428-3.428zM25.064 3.428c0-.63.512-1.143 1.142-1.143h13.406a1.144 1.144 0 0 1 0 2.285H26.206c-.63 0-1.142-.512-1.142-1.142zm2.894 7.465V6.855h9.902v4.038h-9.902zm9.14 44.18H28.72v-2.286h8.379v2.285zM40.145 20.8c0-2.73 2.221-4.95 4.952-4.95 2.73 0 4.95 2.22 4.95 4.95a4.956 4.956 0 0 1-4.94 4.95h-.02a4.956 4.956 0 0 1-4.942-4.95zm34.428 45.85H20.72a1.143 1.143 0 1 0 0 2.285h42.953c-.555 3.83-3.858 6.78-7.838 6.78H22.166c-3.98 0-7.283-2.95-7.838-6.78h1.54a1.142 1.142 0 1 0 0-2.285H3.429a1.144 1.144 0 0 1 0-2.285h71.144a1.144 1.144 0 0 1 0 2.285z" fill="#000"/><path d="M24.683 48.37h16.453a1.142 1.142 0 1 0 0-2.286H24.683a1.143 1.143 0 1 0 0 2.285zM24.683 44.103h16.453a1.143 1.143 0 1 0 0-2.285H24.683a1.142 1.142 0 1 0 0 2.285z" fill="#000"/></svg>