<svg width="76" height="76" fill="none" xmlns="http://www.w3.org/2000/svg"><path d="M74.672 60.752v13.922H21.516l-1.83-2.743a1.266 1.266 0 0 1 .352-1.756l2.743-1.829v-5.062L18.77 53.255l-1.05-2.628-1.424-2.847-2.199-4.397a25.647 25.647 0 0 1-2.705-11.462v-8.425L5.145 21.71a4.11 4.11 0 0 1-2.95-3.444l-.315-2.519-.614-4.909h8.86l1.636-3.275a11.392 11.392 0 0 1 11.062-6.263l4.824.372a8.227 8.227 0 0 1 6.214 3.639l5.372 8.059 3.432 5.608a55.524 55.524 0 0 0 13.697 15.168l8.243 6.28a25.555 25.555 0 0 1 10.066 20.325z" fill="#F3AF3E"/><path d="m24.859 9.994-1.103 7.163a8.798 8.798 0 0 0 8.696 10.136h1.72V10.356a3.314 3.314 0 0 0-3.313-3.314h-2.56a3.48 3.48 0 0 0-3.44 2.952zM60.632 67.617a1.27 1.27 0 0 1-1.148.73H49.093a3.534 3.534 0 0 0-3.53 3.529v2.798h-2.53v-2.798a6.066 6.066 0 0 1 6.06-6.061h7.695a22.28 22.28 0 0 1-4.896-13.922 1.266 1.266 0 1 1 2.531 0 19.744 19.744 0 0 0 4.567 12.617l1.469 1.76a1.27 1.27 0 0 1 .174 1.347z" fill="#C38325"/><path d="M68.344 32.909a19.738 19.738 0 0 1-.16 2.53 20.002 20.002 0 0 1-1.905 6.381 20.283 20.283 0 0 1-13.123 10.7 20.247 20.247 0 0 1-25.152-17.08 19.738 19.738 0 0 1-.16-2.531 20.253 20.253 0 0 1 38.062-9.641 20.157 20.157 0 0 1 2.438 9.64z" fill="#C0F5F9"/><path d="M6.328 10.84v1.078a3.481 3.481 0 0 1-2.635 3.378l-1.813.452-.614-4.909h5.062zM17.719 12.105a2.531 2.531 0 1 0 0-5.062 2.531 2.531 0 0 0 0 5.062z" fill="#C38325"/><path d="M44.297 59.487h7.594v15.187h-7.594V59.487z" fill="#428DC5"/><path d="M68.304 34.174c-.026.426-.067.848-.12 1.266a20.002 20.002 0 0 1-1.905 6.38 20.283 20.283 0 0 1-13.123 10.7 20.247 20.247 0 0 1-25.152-17.08c-.054-.418-.094-.84-.12-1.266h40.42z" fill="#EEB58E"/><path d="M40.5 37.971h2.531v2.531h-2.53v-2.53z" fill="#F55648"/><path d="M40.5 44.3h2.531v2.53h-2.53V44.3z" fill="#B94137"/><path d="M51.89 44.3h2.532v2.53h-2.531V44.3zM56.953 44.3h2.531v2.53h-2.53V44.3z" fill="#F55648"/><path d="M54.422 40.502h2.531v2.532h-2.531v-2.532z" fill="#B94137"/><path d="m30.005 69.242-1.799 1.797 1.957 2.933c.139.208.212.452.212.702h-2.787L26.1 72.442a2.538 2.538 0 0 1 .317-3.192l1.427-1.427V61.32l-9.075-8.065-1.05-2.628-1.424-2.847c.144.054.277.134.392.237l13.263 11.79a1.263 1.263 0 0 1 .425.945v7.594c0 .336-.133.658-.37.896zM37.969 58.221v16.453h-2.531v-16.07l-2.32-3.477a1.266 1.266 0 1 1 2.108-1.405l2.53 3.797c.139.208.212.452.213.702z" fill="#C38325"/><path d="M68.304 34.174c-.026.426-.067.848-.12 1.266h-40.18l-.12-1.266h40.42z" fill="#BD9070"/><path d="M54.32 18.987a40.879 40.879 0 0 0-7.412 19.692l-.068.678a2.427 2.427 0 0 0 4.134 1.96l.103-.103a2.43 2.43 0 0 0 .712-1.718v-5.352c0-3.342.41-6.672 1.22-9.914l1.31-5.243zM65.906 23.268l-.24.962a40.831 40.831 0 0 0-1.222 9.914v5.352c0 .644-.255 1.262-.71 1.718l-.103.102a2.428 2.428 0 0 1-4.134-1.959l.067-.677a40.853 40.853 0 0 1 5.521-16.792c.291.448.565.908.821 1.38zM39.132 18.987a40.879 40.879 0 0 0-7.411 19.692l-.068.678a2.427 2.427 0 0 0 4.134 1.96l.102-.103a2.43 2.43 0 0 0 .712-1.718v-5.352c0-3.342.41-6.672 1.22-9.914l1.311-5.243z" fill="#744630"/><path d="M69.61 32.909c0-11.864-9.652-21.516-21.516-21.516-11.864 0-21.516 9.652-21.516 21.516 0 10.12 7.024 18.63 16.453 20.912v5.666h10.125V53.82C62.586 51.538 69.61 43.03 69.61 32.91zM48.094 51.893a18.985 18.985 0 1 1 18.984-18.984 19.006 19.006 0 0 1-18.984 18.984z" fill="#428DC5"/><path d="M44.297 59.487h7.594v2.531h-7.594v-2.531z" fill="#3775A4"/><path d="M17.719 12.105a2.531 2.531 0 1 0 0-5.062 2.531 2.531 0 0 0 0 5.062zM40.5 37.971h2.531v2.531h-2.53v-2.53zM40.5 44.3h2.531v2.53h-2.53V44.3zM51.89 44.3h2.532v2.53h-2.531V44.3zM56.953 44.3h2.531v2.53h-2.53V44.3zM54.422 40.502h2.531v2.532h-2.531v-2.532z" fill="#000"/><path d="M.939 18.424a5.368 5.368 0 0 0 3.858 4.504l5.328 1.523v7.47a27.032 27.032 0 0 0 2.84 12.028l3.598 7.198 4.953 12.38v4.142l-2.18 1.453a2.532 2.532 0 0 0-.702 3.51l1.829 2.744a1.265 1.265 0 0 0 1.053.564h53.156a1.266 1.266 0 0 0 1.266-1.266V60.752a26.86 26.86 0 0 0-8.13-19.231 21.353 21.353 0 0 0 1.738-6.952 1.26 1.26 0 0 0 .039-.643 21.385 21.385 0 0 0-2.336-10.811l.955-3.821a1.266 1.266 0 0 0-2.258-1.043c-.322.452-.635.91-.938 1.373a21.497 21.497 0 0 0-24.625-6.801l-.07-.113a.828.828 0 0 0-.026-.041L34.916 4.61a9.433 9.433 0 0 0-7.17-4.199L22.922.04A12.609 12.609 0 0 0 10.63 6.999L9.343 9.574H1.266A1.266 1.266 0 0 0 .01 10.997l.929 7.427zm26.905 49.398-1.427 1.427a2.539 2.539 0 0 0-.317 3.194l.645.966h-4.552l-1.453-2.18 2.744-1.83a1.265 1.265 0 0 0 .563-1.053v-5.062c0-.161-.03-.32-.09-.47l-3.072-7.679 6.959 6.186v6.501zm22.781 5.587h-5.062V60.752h5.062V73.41zm1.266-15.188h-7.594V54.09a21.65 21.65 0 0 0 7.594 0v4.132zm14.388-30.764c.531 1.768.8 3.605.8 5.452h-1.35c.058-1.828.242-3.65.55-5.452zm-.57 12.04V35.44h1.2a18.822 18.822 0 0 1-1.25 4.667c.034-.202.05-.406.051-.61zm.882 4.388a24.327 24.327 0 0 1 6.815 16.867V73.41h-20.25v-5.063h6.328a1.265 1.265 0 0 0 .973-2.076l-1.467-1.76a19.568 19.568 0 0 1-4.502-11.056c5.074-1.592 9.383-4.999 12.104-9.569zm-13.435 21.93v-5.063c.18 0 .357-.038.52-.112a22.218 22.218 0 0 0 3.111 5.175h-3.63zm11.472-23.706c.058-.058.113-.118.166-.179a18.977 18.977 0 0 1-33.141.462 3.693 3.693 0 0 0 5.03-.181l.101-.102a3.673 3.673 0 0 0 1.083-2.613V35.44h8.213a42.678 42.678 0 0 0-.431 3.113l-.068.678a3.695 3.695 0 0 0 6.289 2.98l.102-.102a3.67 3.67 0 0 0 1.082-2.613V35.44h5.682a42.678 42.678 0 0 0-.43 3.113l-.069.678a3.695 3.695 0 0 0 6.289 2.98l.102-.102zm-31.716-2.626.068-.678a39.643 39.643 0 0 1 2.898-11.402 42.18 42.18 0 0 0-.543 6.742v5.352a1.157 1.157 0 0 1-.341.822l-.102.103a1.163 1.163 0 0 1-1.98-.938v-.001zm15.188 0 .067-.678a39.643 39.643 0 0 1 2.899-11.402 42.18 42.18 0 0 0-.543 6.742v5.352a1.157 1.157 0 0 1-.341.822l-.102.103a1.163 1.163 0 0 1-1.98-.938v-.001zm15.08-5.34v5.353a1.155 1.155 0 0 1-.342.822l-.102.103a1.163 1.163 0 0 1-1.98-.939l.068-.678a39.645 39.645 0 0 1 2.898-11.4 42.163 42.163 0 0 0-.543 6.74zm-25.125-20.26c-.91.483-1.785 1.03-2.617 1.638v-5.165c0-.144-.01-.289-.023-.433l2.64 3.96zm10.039.041a18.973 18.973 0 0 1 15.493 8.026 42.25 42.25 0 0 0-4.324 10.959h-6.19c.089-2.825.479-5.631 1.164-8.372l1.31-5.243a1.265 1.265 0 0 0-2.257-1.043 42.208 42.208 0 0 0-6.683 14.658h-8.721c.088-2.825.478-5.631 1.163-8.372l1.31-5.243a1.265 1.265 0 0 0-2.257-1.043A42.208 42.208 0 0 0 31.42 32.91h-2.31a19.006 19.006 0 0 1 18.985-18.985zM30.378 39.732a18.828 18.828 0 0 1-1.1-4.292h1.614a42.623 42.623 0 0 0-.43 3.113l-.069.678a3.733 3.733 0 0 0-.015.5zm-2.176-15.018a7.506 7.506 0 0 1-3.195-7.364l1.102-7.163a2.203 2.203 0 0 1 2.19-1.879h2.56A2.037 2.037 0 0 1 32.69 9.44c.142.285.216.598.216.916v7.327a21.592 21.592 0 0 0-4.704 7.03zM7.586 12.104h2.54a1.266 1.266 0 0 0 1.131-.699l1.638-3.275a10.086 10.086 0 0 1 9.832-5.567l4.824.372a6.916 6.916 0 0 1 5.258 3.079l.195.292a4.58 4.58 0 0 0-2.145-.53h-2.56a4.72 4.72 0 0 0-4.691 4.025l-1.102 7.164a10.03 10.03 0 0 0 4.85 10.206 21.467 21.467 0 0 0-.753 6.755 1.26 1.26 0 0 0 .039.643 21.567 21.567 0 0 0 15.124 18.905v6.013a1.266 1.266 0 0 0 1.266 1.265V73.41h-5.063V58.22c0-.25-.074-.494-.213-.702l-2.531-3.797a1.266 1.266 0 1 0-2.106 1.404l2.319 3.478V73.41h-5.651l-1.58-2.37 1.798-1.798c.237-.237.37-.56.37-.895v-7.594a1.266 1.266 0 0 0-.425-.946l-11.208-9.963-3.514-7.026a24.489 24.489 0 0 1-2.572-10.896v-8.425a1.265 1.265 0 0 0-.917-1.217l-6.247-1.785A2.84 2.84 0 0 1 3.45 18.11l-.175-1.405.725-.181a4.737 4.737 0 0 0 3.586-4.42zm-2.531 0a2.212 2.212 0 0 1-1.67 1.964l-.426.107-.26-2.07h2.356z" fill="#000"/></svg>