<svg width="54" height="78" fill="none" xmlns="http://www.w3.org/2000/svg"><path d="M52.866 38.723a6.05 6.05 0 1 1-12.102 0 6.05 6.05 0 0 1 12.102 0z" fill="#89CEEA"/><path d="M46.815 32.672c-.802 0-1.568.158-2.269.442a6.052 6.052 0 0 1 0 11.218 6.05 6.05 0 1 0 2.269-11.66z" fill="#78C0DE"/><path d="M37.437 60.058v16.253H1.134V60.058a12.03 12.03 0 0 1 8.992-11.653 12.019 12.019 0 0 1 3.002-.382h12.316a12.017 12.017 0 0 1 3.011.385 12.027 12.027 0 0 1 8.982 11.65z" fill="#E8E1D5"/><path d="M28.455 48.408a12.016 12.016 0 0 0-3.012-.385h-4.537a12.017 12.017 0 0 1 3.012.385 12.027 12.027 0 0 1 8.981 11.65v16.253h4.538V60.058a12.027 12.027 0 0 0-8.982-11.65z" fill="#D6CFC4"/><path d="m28.455 48.408-9.164 27.903-9.165-27.906a12.019 12.019 0 0 1 3.002-.382h12.316a12.016 12.016 0 0 1 3.011.385z" fill="#FF573D"/><path d="M26.13 48.023c.546 0 .946.514.81 1.044-.67 2.64-3.843 4.64-7.654 4.64s-6.984-2-7.656-4.64a.837.837 0 0 1 .811-1.044h2.349v-8.836h8.992v8.836h2.348z" fill="#EBA28C"/><path d="M19.286 76.311c.046-.392-3.866-25.125-4.523-29.276a.604.604 0 0 0-.683-.503l-6.282.902a.605.605 0 0 0-.518.558l-.56 8.21 2.64 1.606-.736 3.84L19.286 76.31z" fill="#C4BEB4"/><path d="M19.286 76.311c-.046-.392 3.865-25.125 4.523-29.276a.604.604 0 0 1 .683-.503l6.282.902c.283.04.498.273.518.558l.56 8.21-2.64 1.606.735 3.84-10.66 14.663z" fill="#C4BEB4"/><path d="M8.244 24.353c0 2.255-1.64 4.084-3.66 4.084-2.022 0-3.298-2.095-3.298-4.35 0-2.662 1.276-3.818 3.297-3.818 2.022 0 3.66 1.829 3.66 4.084zM30.328 24.353c0 2.255 1.639 4.084 3.66 4.084s3.298-2.095 3.298-4.35c0-2.662-1.277-3.818-3.298-3.818s-3.66 1.829-3.66 4.084z" fill="#EBA28C"/><path d="M5.975 29.608V19.76c0-6.932 5.619-12.55 12.55-12.55h1.521c6.932 0 12.55 5.618 12.55 12.55v9.848c0 7.345-5.953 13.299-13.298 13.299h-.025c-7.344 0-13.298-5.954-13.298-13.299z" fill="#FCC19C"/><path d="M20.046 7.21h-1.52c-.512 0-1.015.033-1.51.092 6.22.746 11.043 6.037 11.043 12.458v9.848c0 6.576-4.773 12.035-11.042 13.107.733.126 1.487.192 2.256.192h.025c7.345 0 13.299-5.954 13.299-13.299V19.76c0-6.932-5.62-12.55-12.55-12.55z" fill="#EBA28C"/><path d="M5.975 24.239a.15.15 0 0 0 .182.148c.605-.127 2.522-.65 2.692-2.177.201-1.815 3.64-6.958 9.08-7.462 3.962-.368 5.887-2.446 6.641-3.548.151-.22.49-.157.546.104.3 1.4 1.118 4.32 2.947 5.965 2.418 2.175 1.69 6.958 4.368 7.147a.153.153 0 0 0 .166-.152v-3.779c0-.4.325-.725.725-.725h.066c.337 0 .629-.23.706-.557.329-1.386 1.03-5.092-.024-7.985-1.322-3.63-5.026-5.143-5.026-5.143s-1.257-4.94-8.961-4.94c-7.705 0-10.727 3.244-10.727 3.244s-5.852 5.017-5.348 9.407c.339 2.95.468 4.875.516 5.82.02.386.339.688.725.688.4 0 .726.325.726.726v3.219z" fill="#633327"/><path d="M34.07 11.219c-1.322-3.63-5.026-5.144-5.026-5.144s-1.257-4.94-8.961-4.94c-.904 0-1.74.046-2.518.124 5.91.768 6.941 4.816 6.941 4.816s3.704 1.513 5.026 5.144c1.055 2.892.353 6.598.024 7.985a.704.704 0 0 1-.103.234c.881 2.238 1.017 4.84 2.978 4.978a.153.153 0 0 0 .166-.152v-3.779c0-.4.325-.725.725-.725h.066c.336 0 .629-.23.706-.557.329-1.386 1.03-5.092-.024-7.984zM13.392 14.748c-4.037.374-6.97 3.301-8.298 5.529.05.01.102.017.155.017.4 0 .726.325.726.726v3.219a.15.15 0 0 0 .182.148c.605-.127 2.522-.65 2.692-2.177.201-1.815 3.64-6.958 9.08-7.462 1.37-.127 2.496-.459 3.415-.883-2.487.354-3.99.516-7.952.883z" fill="#572D22"/><path d="M17.089 26.199a3.782 3.782 0 1 1-7.563 0 3.782 3.782 0 0 1 7.563 0zM29.046 26.199a3.782 3.782 0 1 1-7.564 0 3.782 3.782 0 0 1 7.564 0z" fill="#CEE8F2"/><path d="M54 38.723c0-3.962-3.223-7.185-7.185-7.185-3.962 0-7.185 3.223-7.185 7.185 0 3.576 2.626 6.549 6.05 7.094v1.454c0 4.564-3.282 8.374-7.61 9.2a13.214 13.214 0 0 0-5.576-7.52l-.07-1.037a1.75 1.75 0 0 0-1.488-1.604l-1.995-.285c3.932-2.057 6.622-6.173 6.622-10.909V29.24c1.703-.753 2.857-2.72 2.857-5.153 0-2.645-1.141-4.342-3.178-4.816.376-1.657 1.002-5.401-.106-8.441-1.193-3.275-4.043-5.001-5.184-5.58C29.349 3.798 27.099 0 20.082 0 12.433 0 9.05 3.082 8.58 3.551c-.576.502-6.247 5.58-5.697 10.364a99.01 99.01 0 0 1 .487 5.347c-2.061.46-3.218 2.162-3.218 4.825 0 2.45 1.17 4.427 2.891 5.168v5.861c0 4.733 2.688 8.847 6.616 10.904l-2.022.29a1.75 1.75 0 0 0-1.488 1.604l-.07 1.036A13.218 13.218 0 0 0 0 60.058v7.707a1.135 1.135 0 0 0 2.269 0v-7.707a10.95 10.95 0 0 1 3.604-8.106l-.285 4.172c-.03.423.18.827.542 1.047l1.968 1.197-.588 3.066c-.06.308.012.627.197.88l9.351 12.863H2.268v-2.59a1.135 1.135 0 0 0-2.268 0v3.724c0 .626.508 1.134 1.134 1.134h36.303c.626 0 1.134-.508 1.134-1.134V60.058c0-.457-.024-.911-.071-1.36 5.374-1.026 9.45-5.759 9.45-11.427v-1.454C51.374 45.272 54 42.3 54 38.723zM35.75 56.638h-2.853c.067-.16.1-.334.087-.514l-.285-4.172a10.963 10.963 0 0 1 3.051 4.686zm-5.077-1.047-1.662 1.011a9.326 9.326 0 0 1-5.223-2.16c.06-.392.77-4.88 1.06-6.713l5.341.767.484 7.095zm-11.4-11.55h.024c1.153 0 2.275-.136 3.35-.393v1.503h-6.722v-1.503c1.075.256 2.196.393 3.349.393zm-3.3 3.38h2.2a11.56 11.56 0 0 0 1.277 5.147c-.055.002-.11.004-.164.004a9.26 9.26 0 0 1-2.555-.356l-.758-4.796zm5.87 4.778a9.313 9.313 0 0 1-1.402-4.779H22.6c-.267 1.69-.52 3.281-.755 4.78zm-2.557 2.642c.543 0 1.077-.037 1.6-.108.152.182.311.358.474.53-.938 5.956-1.603 10.22-2.074 13.28-.487-3.165-1.183-7.622-2.173-13.904.703.133 1.429.202 2.173.202zm5.63-9.829v-2.109a14.495 14.495 0 0 0 8.378-9.77v1.983c0 4.97-3.63 9.104-8.379 9.896zM36.15 24.087c0 1.58-.809 3.215-2.163 3.215-.086 0-.172-.005-.257-.015v-5.868c.085-.01.17-.016.257-.016 1.07 0 2.163.32 2.163 2.684zM10.095 5.24c.032-.027.063-.056.091-.088.027-.029 2.769-2.883 9.897-2.883 6.65 0 7.818 3.93 7.861 4.086.082.357.33.629.667.77.033.013 3.266 1.388 4.393 4.482.893 2.448.34 5.715.054 7.037a1.863 1.863 0 0 0-1.596 1.841v1.461c-.113-.316-.23-.692-.36-1.128-.446-1.499-.953-3.199-2.281-4.393-1.617-1.454-2.354-4.232-2.596-5.36a1.435 1.435 0 0 0-2.591-.506c-.687 1.005-2.355 2.739-5.809 3.06l-.145.014a1.134 1.134 0 1 0 .241 2.256l.113-.011c3.151-.293 5.166-1.565 6.387-2.753.506 1.635 1.39 3.645 2.883 4.987.854.768 1.245 2.083 1.625 3.355.445 1.492.983 3.294 2.533 3.888v4.253c0 6.707-5.456 12.164-12.165 12.164h-.023c-6.708 0-12.165-5.456-12.165-12.164v-4.302a5.202 5.202 0 0 0 1.588-.812 4.89 4.89 0 0 0-.306 1.705 4.922 4.922 0 0 0 4.916 4.916 4.924 4.924 0 0 0 4.783-3.782h2.392a4.924 4.924 0 0 0 4.782 3.782 4.922 4.922 0 0 0 4.916-4.916 4.922 4.922 0 0 0-4.916-4.916 4.923 4.923 0 0 0-4.782 3.781H18.09a4.924 4.924 0 0 0-4.783-3.781 4.9 4.9 0 0 0-3.38 1.352c.02-.098.038-.198.05-.3.096-.87 1.537-3.337 3.947-4.95a1.135 1.135 0 0 0-1.262-1.886c-2.809 1.88-4.752 4.882-4.94 6.586-.035.305-.288.554-.613.748v-1.818a1.854 1.854 0 0 0-.589-1.35l-.038-.037-.031-.026a1.844 1.844 0 0 0-.812-.402c-.06-1.015-.196-2.865-.504-5.543-.356-3.1 3.46-7.127 4.96-8.417zM10.66 26.2a2.65 2.65 0 0 1 2.647-2.647 2.65 2.65 0 0 1 2.647 2.647 2.65 2.65 0 0 1-2.647 2.647 2.65 2.65 0 0 1-2.647-2.647zm11.957 0a2.65 2.65 0 0 1 2.647-2.647 2.65 2.65 0 0 1 2.647 2.647 2.65 2.65 0 0 1-2.647 2.647 2.65 2.65 0 0 1-2.647-2.647zM4.583 21.403c.087 0 .172.008.257.018v5.866a2.2 2.2 0 0 1-.257.015c-1.354 0-2.163-1.634-2.163-3.215 0-2.365 1.094-2.684 2.163-2.684zm.728 13.713V33.27a14.499 14.499 0 0 0 8.345 9.633v2.103c-4.731-.807-8.345-4.933-8.345-9.89zM9.95 56.84 7.898 55.59l.402-5.889.002-.02.08-1.187 5.343-.766A9977.2 9977.2 0 0 1 17.51 71.94L9.83 61.378l.643-3.357c.09-.465-.12-.936-.524-1.182zm26.353 18.338h-14.79l4.973-6.84a1.134 1.134 0 1 0-1.835-1.335l-3.59 4.938c.546-3.582 1.39-8.993 2.328-14.968 1.43.949 3.081 1.589 4.858 1.828l.494 2.578-1.232 1.694a1.135 1.135 0 0 0 1.835 1.334l1.52-2.09c.186-.255.257-.573.198-.882l-.484-2.527h5.662c.04.38.062.764.062 1.151v15.119zm10.512-31.538a4.921 4.921 0 0 1-4.916-4.916 4.921 4.921 0 0 1 4.916-4.916 4.921 4.921 0 0 1 4.916 4.916 4.921 4.921 0 0 1-4.916 4.916z" fill="#000"/></svg>