<svg width="62" height="77" fill="none" xmlns="http://www.w3.org/2000/svg"><path d="M52.445 67.799V56.285h7.676v14.072a5.117 5.117 0 0 1-5.117 5.117h-2.559v-7.675z" fill="#F6BB92"/><path d="m56.283 44.773 1.08-2.559.958-2.269a6.661 6.661 0 0 0-1.43-7.293 6.663 6.663 0 0 1-1.951-4.71v-6.195H26.86v6.195a6.662 6.662 0 0 1-1.95 4.71 6.662 6.662 0 0 0-1.431 7.293l1.013 2.411 31.79 2.417z" fill="#834B10"/><path d="M60.12 49.995a7.675 7.675 0 0 0-6.413-7.57l-1.262-.21-6.606-1.102-4.907 4.939-4.958-4.977-9.113 1.14v33.259h25.584V65.24a7.237 7.237 0 0 0 1.018-8.954h6.658v-6.29z" fill="#85BC94"/><path d="M55.004 23.026H26.86V15.35a14.071 14.071 0 0 1 28.143 0v7.675z" fill="#834B10"/><path d="M51.166 19.188h-1.28v-7.675H31.979v7.675h-1.28a3.838 3.838 0 1 0 0 7.676h1.28v1.279a8.954 8.954 0 1 0 17.909 0v-1.28h1.28a3.838 3.838 0 1 0 0-7.675z" fill="#F6BB92"/><path d="M39.653 50.937v24.537H11.031a24.699 24.699 0 0 1 3.313-4.113l.094-.094a25.353 25.353 0 0 0 5.39-7.954c.503-1.17 1.003-2.34 1.368-3.19l.548-1.279h-3.68a5.122 5.122 0 0 1-4.964-3.876l-.63-2.52-.165-.659a2.559 2.559 0 0 1 2.482-3.179h4.399a10.93 10.93 0 0 1 4.747-5.92l.56-.334a9.979 9.979 0 0 1 9.59-.369l.057.029a9.974 9.974 0 0 1 5.513 8.92z" fill="#BD9070"/><path d="M39.653 51.169v3.63a3.837 3.837 0 1 1-7.675 0V48.61h5.117l2.558 2.559zM27.766 57.19l-2.558 2.559a1.28 1.28 0 0 1-.905.374h-3.107l.548-1.279h-3.68a5.098 5.098 0 0 1-3.383-1.28h9.092l2.183-2.184a1.28 1.28 0 0 1 1.81 1.81zM16.627 48.61v1.546a2.291 2.291 0 0 1-2.291 2.292H12.47l-.165-.659a2.56 2.56 0 0 1 2.482-3.179h1.84zM20.595 72.314a1.28 1.28 0 0 1-1.022-2.047 23.61 23.61 0 0 0 3.516-6.71 1.278 1.278 0 0 1 2.364-.174 1.28 1.28 0 0 1 .063.982 26.158 26.158 0 0 1-3.896 7.437 1.276 1.276 0 0 1-1.025.512z" fill="#9E785D"/><path d="M30.699 19.188a8.723 8.723 0 0 0 5.34-5.035l1.056-2.64-6.396-1.28v8.955zM37.095 11.513l.15.225a16.731 16.731 0 0 0 13.921 7.45v-8.954l-14.071 1.279zM36.135 23.346a1.599 1.599 0 1 0 0-3.198 1.599 1.599 0 0 0 0 3.198zM45.73 23.346a1.599 1.599 0 1 0 0-3.198 1.599 1.599 0 0 0 0 3.198zM40.932 28.143h-2.558a1.28 1.28 0 0 1-1.144-1.852l2.558-5.117a1.279 1.279 0 1 1 2.289 1.145l-1.633 3.265h.488a1.28 1.28 0 0 1 0 2.559z" fill="#834B10"/><path d="M48.608 52.448a1.28 1.28 0 0 1-1.28-1.28v-8.954a1.28 1.28 0 1 1 2.559 0v8.955a1.28 1.28 0 0 1-1.28 1.279z" fill="#C3C3C3"/><path d="M48.608 58.844a3.838 3.838 0 1 0 0-7.675 3.838 3.838 0 0 0 0 7.675z" fill="#E4E4E2"/><path d="M48.608 56.286a1.28 1.28 0 1 0 0-2.559 1.28 1.28 0 0 0 0 2.559z" fill="#C3C3C3"/><path d="M53.725 75.474H34.536a3.838 3.838 0 0 1 0-7.675h1.28a2.558 2.558 0 0 1 2.558-2.559h.22c.678 0 1.329.27 1.809.75l1.809 1.809h11.513v7.675zM11.173 69.535a3.192 3.192 0 0 0 2.044 4.386l4.924 1.391a3.837 3.837 0 1 0 2.087-7.385l-1.23-.348a2.558 2.558 0 0 0-1.767-3.158l-.211-.06a2.558 2.558 0 0 0-1.945.23 7.766 7.766 0 0 0-3.286 3.58l-.616 1.364z" fill="#F6BB92"/><path d="M4.51 34.348c.851 0 1.668.338 2.27.94l1.618 1.619 1.618-1.618a3.212 3.212 0 0 1 5.386 1.492A3.927 3.927 0 0 1 13.772 41L8.397 44.58 3.026 41a3.926 3.926 0 0 1-1.631-4.22 3.212 3.212 0 0 1 3.115-2.432z" fill="#DC4D41"/><path d="M30.699 19.188h1.279v7.675h-1.28v-7.675zM49.887 19.188h1.28v7.675h-1.28v-7.675z" fill="#EEB58E"/><path d="m35.974 41.075 4.958 4.977 4.907-4.939a1.28 1.28 0 0 1-1.069-1.262v-4.033h-7.675v3.988a1.279 1.279 0 0 1-1.12 1.27z" fill="#F6BB92"/><path d="M40.932 37.097a8.954 8.954 0 0 1-8.954-8.954v-1.28h17.909v1.28a8.954 8.954 0 0 1-8.955 8.954z" fill="#85BC94"/><path d="M25.582 51.169a1.28 1.28 0 1 0 0-2.559 1.28 1.28 0 0 0 0 2.559z" fill="#9E785D"/><path d="M36.135 23.346a1.599 1.599 0 1 0 0-3.198 1.599 1.599 0 0 0 0 3.198zM45.73 23.346a1.599 1.599 0 1 0 0-3.198 1.599 1.599 0 0 0 0 3.198zM48.608 56.286a1.28 1.28 0 1 0 0-2.559 1.28 1.28 0 0 0 0 2.559z" fill="#000"/><path d="m58.319 43.238 1.18-2.797a7.914 7.914 0 0 0-1.705-8.694 5.378 5.378 0 0 1-1.576-3.806l.065-12.59a15.35 15.35 0 0 0-30.701 0v12.59a5.421 5.421 0 0 1-1.576 3.806 7.938 7.938 0 0 0-1.706 8.694l.587 1.397a12.195 12.195 0 0 0-4.586 5.493h-3.514a3.811 3.811 0 0 0-3.277 1.839 3.802 3.802 0 0 0-.447 2.93l.165.659.63 2.519a6.386 6.386 0 0 0 6.204 4.845h1.741l-1.151 2.687c-.099.23-.203.46-.31.689a3.865 3.865 0 0 0-.763-.31l-.212-.06a3.813 3.813 0 0 0-2.917.345 9.104 9.104 0 0 0-3.827 4.17l-.616 1.365a4.47 4.47 0 0 0 .659 4.724 26.99 26.99 0 0 0-.712 1.049 1.28 1.28 0 0 0 1.077 1.971h43.973a6.403 6.403 0 0 0 6.396-6.396V49.995a8.948 8.948 0 0 0-3.081-6.757zm.523 6.757v5.011h-4.71a8.551 8.551 0 0 0-.436-.536 5.13 5.13 0 0 0-3.809-4.419v-6.967l2.348.392h.001l1.261.21a6.391 6.391 0 0 1 5.345 6.309zm-7.385 14.433-.016.022c-.02.026-.04.052-.059.08l-.012.02a1.262 1.262 0 0 0-.052.087l-.008.016c-.016.032-.032.064-.046.098l-.004.01a1.31 1.31 0 0 0-.038.108l-.003.011a1.27 1.27 0 0 0-.028.11l-.005.03c-.005.031-.01.062-.013.094a1.323 1.323 0 0 0-.007.127v1.28h-8.424l-1.434-1.434a3.856 3.856 0 0 0-.376-.327V50.937c0-1.291-.221-2.573-.655-3.789a1.275 1.275 0 0 0 1.679-.329l3.384-4.512c.094.028.19.05.288.067l1.7.284v7.393a5.117 5.117 0 1 0 5.515 7.824 5.952 5.952 0 0 1-1.302 6.46c-.03.03-.057.061-.084.093zm-20.76-43.96h.002v5.116a2.56 2.56 0 0 1-1.812-4.366c.48-.48 1.13-.75 1.81-.75zm23.028 2.558a2.562 2.562 0 0 1-2.559 2.558v-5.116a2.561 2.561 0 0 1 2.559 2.558zm-5.117 2.558h-8.164l1.633-3.265a1.28 1.28 0 1 0-2.289-1.144l-2.204 4.41h-4.327v-6.202a9.997 9.997 0 0 0 3.97-4.755l.206-.514a17.85 17.85 0 0 0 11.175 6.17v5.3zm-10.24 2.559h10.24a7.675 7.675 0 0 1-15.35 0h5.11zm2.564 10.233c.863.001 1.723-.108 2.559-.323v1.798c0 .192.023.383.066.57l-2.625 3.499-2.633-3.511c.05-.197.074-.4.075-.603v-1.753c.836.215 1.695.324 2.558.324zm-2.558 16.422a2.558 2.558 0 1 1-5.117 0V49.89h3.308l1.809 1.81v3.1zm12.792.208a2.558 2.558 0 1 1-5.115 0 2.558 2.558 0 0 1 5.115 0zm5.976-15.558-1.009 2.388a8.919 8.919 0 0 0-2.215-.672l-1.261-.211h-.001l-6.607-1.102V37a10.237 10.237 0 0 0 5.117-8.857c.873 0 1.732-.224 2.493-.65v.448a7.935 7.935 0 0 0 2.327 5.616 5.363 5.363 0 0 1 1.156 5.89zm-16.21-36.89a12.795 12.795 0 0 1 12.793 12.793v3.246a5.085 5.085 0 0 0-2.559-.688c-.4 0-.796-.016-1.181-.046A15.349 15.349 0 0 1 38.31 11.03l-.15-.226a1.28 1.28 0 0 0-2.252.235l-1.056 2.64a7.425 7.425 0 0 1-4.39 4.237 5.08 5.08 0 0 0-2.322.682v-3.246A12.807 12.807 0 0 1 40.932 2.558zM25.815 33.557a7.888 7.888 0 0 0 2.325-5.616v-.486c.777.452 1.66.689 2.559.688A10.237 10.237 0 0 0 35.816 37v2.806l-2.862.358c-.242-.076-.489-.146-.743-.207a11.246 11.246 0 0 0-7.073.632l-.48-1.14a5.38 5.38 0 0 1 1.156-5.892zM14.787 49.889h.561v.267a1.013 1.013 0 0 1-1.012 1.013h-.827l.001-.024c.001-.053.005-.107.013-.16l.007-.047c.011-.062.026-.122.046-.18l.007-.019a1.298 1.298 0 0 1 .197-.359 1.27 1.27 0 0 1 1.007-.49zm9.516 10.234a1.279 1.279 0 0 0 .904-.374l2.559-2.559a1.28 1.28 0 0 0-1.81-1.809l-2.183 2.184h-5.71a3.831 3.831 0 0 1-3.722-2.907l-.233-.93h.228a3.575 3.575 0 0 0 3.57-3.572v-.267h1.28a1.28 1.28 0 0 0 1.213-.874 9.65 9.65 0 0 1 4.19-5.226l.562-.336a8.69 8.69 0 0 1 8.348-.328l.068.035a8.596 8.596 0 0 1 1.668 1.09 8.666 8.666 0 0 1 2.413 3.209 1.278 1.278 0 0 0-.553-.128h-5.117a1.28 1.28 0 0 0-1.28 1.28v6.188a5.107 5.107 0 0 0 7.676 4.427v4.735a3.839 3.839 0 0 0-3.62 2.558h-.218a5.113 5.113 0 0 0-4.428 7.676h-6.5a5.12 5.12 0 0 0-.096-5.302 26.333 26.333 0 0 0 2.005-4.527 1.28 1.28 0 0 0-2.427-.81 23.755 23.755 0 0 1-1.513 3.54 5.107 5.107 0 0 0-1-.4l-.21-.06a3.8 3.8 0 0 0-.21-1.027c.306-.59.59-1.19.847-1.792l1.583-3.694h1.716zm-11.964 9.939.617-1.365a6.528 6.528 0 0 1 2.744-2.99 1.273 1.273 0 0 1 .972-.115l.211.06a1.28 1.28 0 0 1 .884 1.579 1.279 1.279 0 0 0 .883 1.579l1.23.348a2.558 2.558 0 0 1-1.39 4.924l-4.925-1.391a1.91 1.91 0 0 1-1.225-2.628v-.001zm46.503.295a3.842 3.842 0 0 1-3.838 3.838H34.536a2.558 2.558 0 1 1 0-5.117h1.28a1.28 1.28 0 0 0 1.279-1.28 1.275 1.275 0 0 1 1.279-1.279h.22c.338.003.663.137.905.376l1.808 1.808a1.279 1.279 0 0 0 .905.375h10.233a1.28 1.28 0 0 0 1.28-1.28v-2.052a8.524 8.524 0 0 0 1.727-8.181h3.39v12.792z" fill="#000"/><path d="M16.643 36.47a4.491 4.491 0 0 0-7.531-2.086l-.713.713-.714-.713A4.49 4.49 0 0 0 .154 36.47a5.216 5.216 0 0 0 2.162 5.594l5.373 3.582a1.28 1.28 0 0 0 1.419 0l5.373-3.582a5.216 5.216 0 0 0 2.162-5.594zm-3.582 3.465-4.663 3.11-4.663-3.11a2.652 2.652 0 0 1-1.1-2.844 1.933 1.933 0 0 1 3.241-.898l1.618 1.618a1.28 1.28 0 0 0 1.809 0l1.618-1.618a1.934 1.934 0 0 1 3.24.898 2.653 2.653 0 0 1-1.1 2.844zM25.582 51.169a1.28 1.28 0 1 0 0-2.559 1.28 1.28 0 0 0 0 2.559z" fill="#000"/></svg>