<svg width="72" height="78" fill="none" xmlns="http://www.w3.org/2000/svg"><path d="M30.857 25.714v-3.336a3.859 3.859 0 0 1 1.388-2.963l5.539-4.616a2.832 2.832 0 0 1 4.645 2.176v5.057a5.787 5.787 0 0 1-1.695 4.091l-2.163 2.163v5.528a3.535 3.535 0 0 1-1.954 3.163l-3.188 1.594h-2.572V25.714zM12.857 25.714v-3.336a3.859 3.859 0 0 0-1.388-2.963L5.93 14.799a2.832 2.832 0 0 0-4.644 2.176v5.057a5.786 5.786 0 0 0 1.694 4.091l2.163 2.163v5.528a3.536 3.536 0 0 0 1.954 3.163l3.189 1.594h2.571V25.714z" fill="#E08122"/><path d="M32.142 31.286a1.286 1.286 0 0 1-1.028-2.057L36 22.714v-2.143a1.286 1.286 0 0 1 2.571 0v2.572c0 .278-.09.549-.257.771l-5.143 6.857a1.283 1.283 0 0 1-1.03.515zM11.572 31.286a1.283 1.283 0 0 1-1.03-.515L5.4 23.915a1.286 1.286 0 0 1-.257-.771V20.57a1.286 1.286 0 1 1 2.571 0v2.143L12.6 29.23a1.285 1.285 0 0 1-1.028 2.057z" fill="#BF6E1D"/><path d="m33.377 69.789-1.234.925.681.227 1.418.472A2.574 2.574 0 0 1 36 73.853v2.004H7.714V73.59a2.572 2.572 0 0 1 1.421-2.3l1.15-.576-2.35-2.35a5.143 5.143 0 0 1-1.506-3.636v-4.52a2.573 2.573 0 0 1 .753-1.819l3.104-3.103 2.571-6.429h18l2.572 6.429 3.103 3.103a2.574 2.574 0 0 1 .754 1.82v4.077a5.141 5.141 0 0 1-2.057 4.114l-1.852 1.389zM30.857 48.857h-18l-2.571-6.428V30.283c0-1.279.508-2.505 1.412-3.41l.023-.022a4.822 4.822 0 0 1 2.727-1.364l.136-.02c4.824-.688 9.722-.688 14.546 0l.136.02a4.822 4.822 0 0 1 2.728 1.364l.022.023a4.821 4.821 0 0 1 1.413 3.409v12.146l-2.572 6.428z" fill="#FD9226"/><path d="M26.67 52.714a4.188 4.188 0 0 1-3.484-1.864l-1.329-1.993-1.328 1.993a4.188 4.188 0 0 1-7.672-2.323v-1.911a4.187 4.187 0 0 1 4.188-4.187h9.625a4.187 4.187 0 0 1 4.187 4.187v1.91a4.187 4.187 0 0 1-4.187 4.188z" fill="#985713"/><path d="M14.143 72v3.857H11.57v-3.553l-1.15-2.3a1.3 1.3 0 0 1-.135-.576V63a1.286 1.286 0 0 1 2.571 0v6.125l1.15 2.3a1.3 1.3 0 0 1 .136.575zM20.571 63v6.428c0 .2-.046.397-.135.576l-1.15 2.3v3.553h-2.572V72c0-.2.047-.397.135-.575l1.151-2.3V63a1.285 1.285 0 1 1 2.571 0zM33.429 63v6.428c0 .2-.047.397-.135.576l-.47.937-.681 1.363v3.553H29.57V72c0-.2.047-.397.135-.575l1.151-2.3V63a1.286 1.286 0 0 1 2.572 0zM27 72v3.857h-2.571v-3.553l-1.151-2.3a1.297 1.297 0 0 1-.135-.576V63a1.286 1.286 0 1 1 2.571 0v6.125l1.151 2.3A1.3 1.3 0 0 1 27 72z" fill="#E08122"/><path d="M21.857 47.571a2.571 2.571 0 1 0 0-5.142 2.571 2.571 0 0 0 0 5.142z" fill="#70400E"/><path d="M16.714 37.768a1.768 1.768 0 1 0 0-3.536 1.768 1.768 0 0 0 0 3.536zM27.482 37.768a1.768 1.768 0 1 0 0-3.536 1.768 1.768 0 0 0 0 3.536z" fill="#985713"/><path d="M52.714 47.571V72a5.143 5.143 0 0 1-10.285 0v-5.464a.964.964 0 0 0-.965-.965h-9.321a1.286 1.286 0 0 1 0-2.571h9.321A3.54 3.54 0 0 1 45 66.536V72a2.571 2.571 0 1 0 5.143 0V47.57a1.286 1.286 0 1 1 2.571 0z" fill="#DBDBDB"/><path d="M51.429 25.714A5.15 5.15 0 0 1 47.595 24a1.286 1.286 0 0 1 1.917-1.715A2.57 2.57 0 1 0 51.429 18a1.286 1.286 0 0 1-1.286-1.286V5.143a1.286 1.286 0 0 1 2.571 0V15.59a5.143 5.143 0 0 1-1.285 10.123z" fill="#878787"/><path d="M66.857 6.429H50.143a2.571 2.571 0 1 1 0-5.143h16.714v5.143z" fill="#CBCBCB"/><path d="M61.714 6.429h5.143v64.285h-5.143V6.43z" fill="#985713"/><path d="M70.714 75.857H57.857a7.21 7.21 0 0 1 3.21-5.997l.647-.431h5.143l.648.431a7.208 7.208 0 0 1 3.21 5.997z" fill="#70400E"/><path d="M45 51.429h2.571V54H45v-2.571zM45 56.571h2.571v5.143H45v-5.143z" fill="#C0F5F9"/><path d="M23.143 61.714h10.286v5.143H23.143v-5.143z" fill="#6B9777"/><path d="M51.429 30.857a1.286 1.286 0 0 1-1.286-1.286v-5.143a1.286 1.286 0 1 1 2.571 0v5.143a1.286 1.286 0 0 1-1.285 1.286z" fill="#CBCBCB"/><path d="M52.714 47.571v1.124a5.171 5.171 0 0 1-2.571 0V47.57a1.286 1.286 0 1 1 2.571 0z" fill="#C3C3C3"/><path d="M61.714 6.429h5.143V9h-5.143V6.429z" fill="#70400E"/><path d="M33.429 63h1.285v2.571H33.43V63z" fill="#C3C3C3"/><path d="M46.286 29.571H56.57v12.857a5.143 5.143 0 1 1-10.285 0V29.572z" fill="#EBEBEB"/><path d="M51.429 47.571a5.143 5.143 0 0 1-5.143-5.142v-7.715H56.57v7.715a5.143 5.143 0 0 1-5.142 5.142z" fill="#C0F5F9"/><path d="M54 39.857h-1.286v-1.286h-2.571v1.286h-1.286v2.572h1.286v1.285h2.571V42.43H54v-2.572z" fill="#85BC94"/><path d="M46.286 34.714H56.57V36H46.286v-1.286z" fill="#B8EAEE"/><path d="M16.714 37.768a1.768 1.768 0 1 0 0-3.536 1.768 1.768 0 0 0 0 3.536zM27.482 37.768a1.768 1.768 0 1 0 0-3.536 1.768 1.768 0 0 0 0 3.536z" fill="#000"/><path d="M3.857 28.818v4.996a4.798 4.798 0 0 0 2.665 4.313L9 39.366v3.063c0 .163.031.325.092.477l2.38 5.951-2.282 5.706-2.917 2.917a3.834 3.834 0 0 0-1.13 2.728v4.52a6.385 6.385 0 0 0 1.882 4.544l1.113 1.113a3.833 3.833 0 0 0-1.71 3.204v2.268a1.286 1.286 0 0 0 1.286 1.286H36a1.285 1.285 0 0 0 1.286-1.286v-2.004a3.853 3.853 0 0 0-2.415-3.578L36 69.428a6.457 6.457 0 0 0 2.438-3.857h3.026a.965.965 0 0 1 .965.965V72a5.143 5.143 0 0 0 10.285 0V48.728a6.439 6.439 0 0 0 5.143-6.3V29.572a1.286 1.286 0 0 0-1.286-1.285h-3.857V25.55a5.143 5.143 0 0 0 0-9.96V7.714h7.715V68.74l-.076.05a8.475 8.475 0 0 0-3.782 7.067 1.286 1.286 0 0 0 1.286 1.286h12.857A1.285 1.285 0 0 0 72 75.857a8.475 8.475 0 0 0-3.782-7.067l-.075-.05V1.286A1.286 1.286 0 0 0 66.857 0H50.143a3.857 3.857 0 1 0 0 7.714v9A1.286 1.286 0 0 0 51.429 18a2.57 2.57 0 1 1-1.917 4.285A1.285 1.285 0 1 0 47.596 24a5.152 5.152 0 0 0 2.547 1.55v2.736h-3.857A1.286 1.286 0 0 0 45 29.57V42.43a6.44 6.44 0 0 0 5.143 6.3V72A2.571 2.571 0 0 1 45 72v-5.464A3.54 3.54 0 0 0 41.464 63h-2.893v-2.792a3.833 3.833 0 0 0-1.13-2.728l-2.917-2.917-2.282-5.706 2.38-5.951c.061-.152.092-.314.092-.477v-3.063l2.479-1.24a4.797 4.797 0 0 0 2.664-4.312v-4.996l1.787-1.786a7.022 7.022 0 0 0 2.07-5v-5.057a4.116 4.116 0 0 0-6.753-3.164l-5.538 4.615a5.125 5.125 0 0 0-1.852 3.952v1.858l-.11-.018-.15-.023a52.802 52.802 0 0 0-14.92.002l-.122.018-.126.02v-1.857a5.126 5.126 0 0 0-1.851-3.951l-5.54-4.618A4.118 4.118 0 0 0 0 16.975v5.057a7.023 7.023 0 0 0 2.07 5l1.786 1.786zM66.792 70.93a5.909 5.909 0 0 1 2.496 3.641H59.283a5.908 5.908 0 0 1 2.497-3.64l.323-.217h4.365l.324.216zM63 68.143V7.714h2.571v60.429H63zm-12.857-63a1.286 1.286 0 1 1 0-2.572H65.57v2.572H50.143zM47.57 30.857h7.715v2.572H47.57v-2.572zm0 11.572V36h7.715v6.429a3.858 3.858 0 0 1-7.715 0zm-36 32.142H9v-.982a1.279 1.279 0 0 1 .71-1.15l1.15-.575c.135-.067.256-.157.359-.266l.353.706v2.267zm19.286-5.446-1.15 2.3c-.09.178-.136.375-.136.575v2.571H27V72c0-.2-.047-.397-.136-.575l-1.15-2.3v-.982h5.143v.982zm0-3.554h-5.143V63h5.143v2.571zm3.857 9h-2.571v-2.267l.1-.201 1.591.53a1.286 1.286 0 0 1 .88 1.22v.718zm-.257-7.2-1.028.772V65.57h2.348a3.867 3.867 0 0 1-1.32 1.8zM32.52 56.195l3.104 3.103a1.277 1.277 0 0 1 .377.91V63h-2.571v-1.286a1.286 1.286 0 0 0-1.286-1.285h-7.714a1.286 1.286 0 0 0-1.286 1.285v7.715c0 .2.046.396.136.575l1.15 2.3v2.267h-5.143v-2.267l1.15-2.3c.089-.179.136-.376.135-.576V63A1.286 1.286 0 1 0 18 63v6.125l-1.15 2.3c-.09.178-.136.375-.136.575v2.571h-2.571V72c0-.2-.047-.397-.136-.575l-1.15-2.3V63a1.286 1.286 0 0 0-2.571 0v5.896l-1.442-1.442a3.882 3.882 0 0 1-1.13-2.726v-4.52a1.278 1.278 0 0 1 .378-.91l3.103-3.103c.123-.123.22-.27.284-.432l1.453-3.63a5.469 5.469 0 0 0 8.667-.57l.258-.388.259.388a5.467 5.467 0 0 0 8.666.57l1.453 3.63c.065.162.161.309.284.432zm-12.037-7.592-1.023 1.533a2.902 2.902 0 0 1-5.316-1.61v-1.91a2.905 2.905 0 0 1 2.902-2.902h1.176a3.854 3.854 0 0 0 2.26 4.889zm.09-3.603a1.286 1.286 0 1 1 2.572 0 1.286 1.286 0 0 1-2.573 0zm4.921-1.286h1.177a2.905 2.905 0 0 1 2.901 2.902v1.91a2.902 2.902 0 0 1-5.316 1.61l-1.022-1.533a3.854 3.854 0 0 0 2.26-4.889zm6.65-21.336a2.564 2.564 0 0 1 .926-1.977l5.536-4.614a1.557 1.557 0 0 1 1.584-.24 1.543 1.543 0 0 1 .954 1.428v5.057a4.469 4.469 0 0 1-1.318 3.181l-2.163 2.163c-.241.242-.376.569-.376.91v5.528a2.239 2.239 0 0 1-1.244 2.013l-1.328.664v-6.208c0-.459-.051-.916-.154-1.364l3.754-5.005c.167-.222.257-.493.257-.771V20.57a1.286 1.286 0 1 0-2.571 0v2.143l-2.725 3.632a6.279 6.279 0 0 0-.35-.383l-.022-.022a6.115 6.115 0 0 0-.76-.641v-2.922zm-19.535 5.404.022-.022a3.539 3.539 0 0 1 2.012-1.001l.124-.02c4.7-.67 9.47-.67 14.17-.001l.151.023a3.54 3.54 0 0 1 1.997.999l.023.022a3.512 3.512 0 0 1 1.036 2.501v11.898l-.703 1.757a5.477 5.477 0 0 0-4.77-2.795h-9.625a5.477 5.477 0 0 0-4.77 2.795l-.704-1.757V30.283a3.512 3.512 0 0 1 1.037-2.5zM2.57 16.975a1.546 1.546 0 0 1 2.536-1.189l5.54 4.617a2.564 2.564 0 0 1 .925 1.975V25.3c-.27.193-.525.407-.76.641l-.023.023a6.25 6.25 0 0 0-.35.383l-2.725-3.633v-2.143a1.286 1.286 0 1 0-2.571 0v2.572c0 .278.09.549.257.771l3.754 5.005A6.156 6.156 0 0 0 9 30.283v6.208l-1.327-.663a2.24 2.24 0 0 1-1.244-2.014v-5.528a1.286 1.286 0 0 0-.377-.91l-2.163-2.163a4.468 4.468 0 0 1-1.318-3.18v-5.058z" fill="#000"/><path d="M52.714 43.714V42.43H54v-2.572h-1.286v-1.286h-2.571v1.286h-1.286v2.572h1.286v1.285h2.571zM45 51.429h2.571V54H45v-2.571zM45 56.571h2.571v5.143H45v-5.143z" fill="#000"/></svg>